<svg width="21" height="21" viewBox="0 0 21 21" fill="none" xmlns="http://www.w3.org/2000/svg">
<g opacity="0.4">
<path d="M14.2993 7.86187C14.3117 7.86283 14.3242 7.86283 14.3366 7.86283L14.3357 7.86379C14.581 7.86379 14.8101 7.73825 14.9423 7.53029C15.4799 6.68504 16.6366 5.23509 17.4493 4.94759C17.824 4.81534 18.0195 4.40421 17.8873 4.03046C17.755 3.65575 17.3448 3.46024 16.9701 3.59249C15.9552 3.95091 14.9471 5.0923 14.3271 5.90784C13.9025 5.51109 13.5211 5.46796 13.3773 5.46796C12.9806 5.46796 12.6586 5.78996 12.6586 6.18671C12.6586 6.54608 12.9221 6.84316 13.2662 6.89682C13.315 6.92557 13.4856 7.05017 13.6936 7.46609C13.8095 7.69705 14.0405 7.84845 14.2993 7.86187Z" fill="#006782"/>
<path fill-rule="evenodd" clip-rule="evenodd" d="M9.78546 5.70671C9.78546 8.74558 12.257 11.2171 15.294 11.2171C18.3309 11.2171 20.8025 8.74558 20.8025 5.70671C20.8025 2.66783 18.3309 0.196289 15.294 0.196289C12.257 0.196289 9.78546 2.66783 9.78546 5.70671ZM11.223 5.70671C11.223 3.46133 13.0495 1.63379 15.294 1.63379C17.5384 1.63379 19.365 3.46133 19.365 5.70671C19.365 7.95208 17.5384 9.77962 15.294 9.77962C13.0495 9.77962 11.223 7.95208 11.223 5.70671Z" fill="#006782"/>
</g>
<path d="M4.02901 20.6585C5.59109 20.7495 7.81055 20.8032 9.92847 20.8032V20.8003C11.8547 20.8003 13.6957 20.7562 14.8783 20.6556C16.057 20.5847 18.3475 19.7509 18.656 17.0935C18.9119 14.8893 18.8908 13.5371 18.8813 12.9592C18.8811 12.9452 18.8809 12.9317 18.8807 12.9187C18.88 12.862 18.8793 12.8142 18.8793 12.7752C18.8793 12.3785 18.5573 12.0565 18.1606 12.0565C17.7638 12.0565 17.4418 12.3785 17.4418 12.7752C17.4418 12.8052 17.4425 12.8405 17.4432 12.881C17.4437 12.9117 17.4443 12.9454 17.4447 12.9822C17.4533 13.5313 17.4735 14.8174 17.2281 16.9277C16.979 19.0724 14.8074 19.221 14.7853 19.2219C14.7786 19.2229 14.7719 19.2238 14.7652 19.2238C12.3444 19.4318 7.05062 19.3935 4.11333 19.2229C2.06537 19.1031 1.64656 16.6536 1.64656 16.0038V15.9943C1.63027 14.7772 1.63505 12.3372 1.6408 9.75358C1.64368 8.38987 1.64656 6.9792 1.64656 5.67395C1.64656 2.65808 3.13584 1.91729 4.38455 1.82721L4.41712 1.82433C4.41793 1.82426 4.42182 1.82383 4.42866 1.82308C4.60622 1.80343 6.77571 1.56342 8.99409 1.65662C9.3918 1.67292 9.72626 1.3653 9.74256 0.968548C9.75885 0.571798 9.45125 0.236375 9.0545 0.220084C6.71042 0.122334 4.49377 0.368633 4.26377 0.395466C3.0304 0.489383 0.208123 1.1947 0.208123 5.67491C0.208123 6.9792 0.205243 8.38891 0.202368 9.75166C0.196618 12.3372 0.191831 14.78 0.208123 16.0096C0.209081 16.691 0.408404 17.7566 0.963279 18.7082C1.66382 19.9081 2.72376 20.5818 4.02901 20.6585Z" fill="#006782"/>
<path d="M9.54676 12.1753H5.71441C5.31766 12.1753 4.99566 11.8533 4.99566 11.4565C4.99566 11.0598 5.31766 10.7378 5.71441 10.7378H9.54676C9.94351 10.7378 10.2655 11.0598 10.2655 11.4565C10.2655 11.8533 9.94351 12.1753 9.54676 12.1753Z" fill="#006782"/>
<path d="M13.3782 16.0086H5.71441C5.31766 16.0086 4.99566 15.6866 4.99566 15.2898C4.99566 14.8931 5.31766 14.5711 5.71441 14.5711H13.3782C13.7749 14.5711 14.0969 14.8931 14.0969 15.2898C14.0969 15.6866 13.7749 16.0086 13.3782 16.0086Z" fill="#006782"/>
</svg>
