<svg width="24" height="24" viewBox="0 0 24 24" fill="none" xmlns="http://www.w3.org/2000/svg">
<path opacity="0.4" fill-rule="evenodd" clip-rule="evenodd" d="M12 3.75C12.4142 3.75 12.75 4.08579 12.75 4.5L12.75 12.9619C12.752 12.9595 12.754 12.9572 12.7561 12.9548C12.9668 12.7061 13.173 12.4434 13.366 12.1976C13.3809 12.1785 13.3958 12.1596 13.4107 12.1407C13.6029 11.896 13.8051 11.6388 13.9622 11.4773C14.2509 11.1802 14.7257 11.1735 15.0227 11.4622C15.3198 11.7509 15.3265 12.2257 15.0378 12.5227C14.9491 12.614 14.8035 12.7958 14.5903 13.0672C14.5748 13.0869 14.5591 13.1069 14.5432 13.1272C14.3532 13.3693 14.1302 13.6534 13.9005 13.9245C13.6543 14.215 13.3787 14.5168 13.1032 14.7515C12.9652 14.869 12.8096 14.985 12.6422 15.0746C12.4807 15.161 12.2583 15.25 12 15.25C11.7417 15.25 11.5193 15.161 11.3578 15.0746C11.1904 14.985 11.0348 14.869 10.8968 14.7515C10.6213 14.5168 10.3457 14.215 10.0995 13.9245C9.86981 13.6534 9.64683 13.3693 9.45677 13.1272C9.44084 13.1069 9.42515 13.0869 9.40971 13.0672C9.19651 12.7958 9.05089 12.614 8.96219 12.5227C8.67349 12.2257 8.68023 11.7509 8.97726 11.4622C9.27428 11.1735 9.74911 11.1802 10.0378 11.4773C10.1949 11.6388 10.3971 11.896 10.5893 12.1407C10.6042 12.1596 10.6191 12.1785 10.634 12.1976C10.827 12.4434 11.0333 12.7061 11.2439 12.9548C11.246 12.9572 11.248 12.9595 11.25 12.9619L11.25 4.5C11.25 4.08579 11.5858 3.75 12 3.75Z" fill="#006782"/>
<path fill-rule="evenodd" clip-rule="evenodd" d="M4 15.75C4.41421 15.75 4.75 16.0858 4.75 16.5C4.75 17.1043 4.78252 17.5375 4.85225 17.8549C4.92012 18.1639 5.01263 18.3135 5.09958 18.4004C5.18653 18.4874 5.33614 18.5799 5.64508 18.6477C5.96252 18.7175 6.39573 18.75 7 18.75H17C17.6043 18.75 18.0375 18.7175 18.3549 18.6477C18.6639 18.5799 18.8135 18.4874 18.9004 18.4004C18.9874 18.3135 19.0799 18.1639 19.1477 17.8549C19.2175 17.5375 19.25 17.1043 19.25 16.5C19.25 16.0858 19.5858 15.75 20 15.75C20.4142 15.75 20.75 16.0858 20.75 16.5C20.75 17.1367 20.7178 17.699 20.6128 18.1768C20.506 18.663 20.3139 19.1083 19.9611 19.4611C19.6083 19.8139 19.163 20.006 18.6768 20.1128C18.199 20.2178 17.6367 20.25 17 20.25H7C6.36327 20.25 5.80098 20.2178 5.32323 20.1128C4.83699 20.006 4.39172 19.8139 4.03892 19.4611C3.68612 19.1083 3.49401 18.663 3.38719 18.1768C3.28223 17.699 3.25 17.1367 3.25 16.5C3.25 16.0858 3.58579 15.75 4 15.75Z" fill="#006782"/>
</svg>
