<svg width="20" height="22" viewBox="0 0 20 22" fill="none" xmlns="http://www.w3.org/2000/svg">
<path opacity="0.4" d="M15.554 5.88574C18.005 5.88574 20 8.09 20 10.7992V16.1844C20 18.887 18.01 21.0857 15.564 21.0857L4.448 21.0857C1.996 21.0857 0 18.8826 0 16.1734V10.7882C0 8.08558 1.991 5.88574 4.438 5.88574H5.378L15.554 5.88574Z" fill="#11B5E4"/>
<path d="M10.5462 15.2398L13.4552 12.0637C13.7552 11.7355 13.7552 11.2072 13.4532 10.88C13.1512 10.5539 12.6642 10.555 12.3642 10.8822L10.7712 12.6213L10.7712 1.58988C10.7712 1.12793 10.4262 0.75293 10.0002 0.75293C9.57518 0.75293 9.23118 1.12793 9.23118 1.58988L9.23118 12.6213L7.63718 10.8822C7.33718 10.555 6.85018 10.5539 6.54818 10.88C6.39718 11.0442 6.32118 11.2583 6.32118 11.4735C6.32118 11.6865 6.39718 11.9007 6.54618 12.0637L9.45518 15.2398C9.60018 15.3974 9.79618 15.4865 10.0002 15.4865C10.2052 15.4865 10.4012 15.3974 10.5462 15.2398Z" fill="black"/>
</svg>
