<svg width="18" height="21" viewBox="0 0 18 21" fill="none" xmlns="http://www.w3.org/2000/svg">
<path d="M3 16.4004H12.5V14.3672H3V16.4004Z" fill="#11B5E4"/>
<path d="M12.5 12.334H3V10.3008H12.5V12.334Z" fill="#11B5E4"/>
<path d="M3 8.26763H6.8V6.23438H3V8.26763Z" fill="#11B5E4"/>
<path fill-rule="evenodd" clip-rule="evenodd" d="M2.85 0.134766C2.09413 0.134766 1.36922 0.456092 0.834746 1.02806C0.300267 1.60002 0 2.37577 0 3.18465V17.4175C0 18.2263 0.300267 19.0021 0.834746 19.5741C1.36922 20.146 2.09413 20.4673 2.85 20.4673H14.25C14.6243 20.4673 14.9949 20.3885 15.3406 20.2352C15.6864 20.0819 16.0006 19.8573 16.2653 19.5741C16.5299 19.2908 16.7398 18.9546 16.8831 18.5846C17.0263 18.2146 17.1 17.818 17.1 17.4175V7.25117C17.1 5.36378 16.3994 3.5537 15.1523 2.21911C13.9051 0.884528 12.2137 0.134766 10.45 0.134766H2.85ZM2.85 2.16802H9.5V7.25117H15.2V17.4175C15.2 17.6871 15.0999 17.9457 14.9218 18.1363C14.7436 18.327 14.502 18.4341 14.25 18.4341H2.85C2.59804 18.4341 2.35641 18.327 2.17825 18.1363C2.00009 17.9457 1.9 17.6871 1.9 17.4175V3.18465C1.9 2.91503 2.00009 2.65644 2.17825 2.46579C2.35641 2.27513 2.59804 2.16802 2.85 2.16802ZM11.4 2.26969C12.1458 2.43417 12.8438 2.78777 13.4354 3.30079C14.0271 3.8138 14.495 4.47125 14.8 5.21791H11.4V2.26969Z" fill="#11B5E4"/>
</svg>
