<svg width="16" height="16" viewBox="0 0 16 16" fill="none" xmlns="http://www.w3.org/2000/svg">
<g clip-path="url(#clip0_758_1762)">
<path fill-rule="evenodd" clip-rule="evenodd" d="M1.60001 7.2C1.60001 6.09242 1.92844 5.00972 2.54378 4.08881C3.15911 3.16789 4.03371 2.45013 5.05698 2.02627C6.08024 1.60242 7.20622 1.49153 8.29251 1.7076C9.37881 1.92368 10.3766 2.45703 11.1598 3.2402C11.943 4.02338 12.4763 5.0212 12.6924 6.10749C12.9085 7.19379 12.7976 8.31976 12.3737 9.34303C11.9499 10.3663 11.2321 11.2409 10.3112 11.8562C9.39028 12.4716 8.30758 12.8 7.20001 12.8C5.71479 12.8 4.29041 12.21 3.24021 11.1598C2.19 10.1096 1.60001 8.68521 1.60001 7.2ZM7.20001 1.7525e-08C6.04994 0.000140651 4.91664 0.275778 3.89497 0.803838C2.8733 1.3319 1.99299 2.09702 1.32773 3.03515C0.662468 3.97328 0.231616 5.05712 0.0712378 6.19595C-0.0891406 7.33478 0.025621 8.49546 0.405916 9.58084C0.786211 10.6662 1.42097 11.6447 2.25707 12.4344C3.09316 13.2241 4.10626 13.802 5.21156 14.1197C6.31686 14.4375 7.4822 14.4858 8.61003 14.2608C9.73786 14.0357 10.7954 13.5437 11.694 12.826L14.634 15.766C14.7853 15.9097 14.9867 15.9886 15.1953 15.986C15.4039 15.9833 15.6032 15.8992 15.7507 15.7517C15.8982 15.6042 15.9823 15.4049 15.985 15.1963C15.9876 14.9876 15.9087 14.7863 15.765 14.635L12.825 11.695C13.6715 10.6357 14.2018 9.35895 14.3546 8.01162C14.5075 6.66429 14.2767 5.30118 13.689 4.0792C13.1013 2.85722 12.1804 1.82605 11.0324 1.10438C9.88442 0.382723 8.55598 -9.45729e-05 7.20001 1.7525e-08Z" fill="#167C84"/>
</g>
<defs>
<clipPath id="clip0_758_1762">
<rect width="16" height="16" fill="white"/>
</clipPath>
</defs>
</svg>
